<svg width="71" height="71" viewBox="0 0 71 71" fill="none" xmlns="http://www.w3.org/2000/svg">
<g clip-path="url(#clip0_1_2186)">
<path d="M68.9187 32.3942L38.7771 2.25374C37.0424 0.517959 34.2271 0.517959 32.4897 2.25374L26.2313 8.51327L34.1708 16.4528C36.0165 15.8299 38.1318 16.2477 39.6023 17.7183C41.0805 19.1981 41.4951 21.3315 40.8569 23.1832L48.5088 30.8356C50.3599 30.1974 52.4966 30.6098 53.9742 32.0907C56.0414 34.1562 56.0414 37.5048 53.9742 39.5714C51.907 41.6386 48.5596 41.6386 46.4913 39.5714C44.9371 38.0161 44.5527 35.7329 45.3402 33.8177L38.2045 26.6821L38.2034 45.4623C38.7077 45.7112 39.1829 46.0437 39.6029 46.462C41.669 48.5276 41.669 51.875 39.6029 53.9449C37.5363 56.0105 34.1866 56.0105 32.1222 53.9449C30.0561 51.8755 30.0561 48.5281 32.1222 46.462C32.633 45.9518 33.2236 45.5662 33.8541 45.3081V26.354C33.2236 26.0959 32.6341 25.713 32.1222 25.1995C30.557 23.6355 30.1802 21.3386 30.983 19.4158L23.1556 11.5884L2.48813 32.2548C0.751801 33.9922 0.751801 36.8075 2.48813 38.5438L32.6302 68.6843C34.366 70.4201 37.1802 70.4201 38.9188 68.6843L68.9192 38.6838C70.655 36.9469 70.655 34.13 68.9187 32.3942Z" fill="#F0F8FF"/>
</g>
<defs>
<clipPath id="clip0_1_2186">
<rect width="70" height="70" fill="white" transform="translate(0.703125 0.46875)"/>
</clipPath>
</defs>
</svg>
