<svg width="71" height="71" viewBox="0 0 71 71" fill="none" xmlns="http://www.w3.org/2000/svg">
<g clip-path="url(#clip0_1_2171)">
<path d="M5.65002 1.01562L11.1489 62.7485L35.8228 69.6282L60.5656 62.7234L66.0688 1.01562H5.65002ZM54.6451 15.1589L52.8147 35.7241L52.8202 35.8352L52.8125 36.0905V36.0884L51.5121 50.4679L51.3688 51.7454L35.8594 56.0351L35.8474 56.046L20.3648 51.7323L19.3164 39.8438H26.9087L27.4474 45.8889L35.8616 48.1694L35.8594 48.1738V48.1727L44.3048 45.8599L45.1973 36.0156H27.5425L27.391 34.3515L27.046 30.4528L26.8649 28.3594H45.8683L46.5596 20.7031H17.6156L17.4642 19.0401L17.1196 15.1403L16.9381 13.0469H54.8261L54.6451 15.1589Z" fill="#F0F8FF"/>
</g>
<defs>
<clipPath id="clip0_1_2171">
<rect width="70" height="70" fill="white" transform="translate(0.859375 0.46875)"/>
</clipPath>
</defs>
</svg>
