<svg width="71" height="71" viewBox="0 0 71 71" fill="none" xmlns="http://www.w3.org/2000/svg">
<g clip-path="url(#clip0_1_2166)">
<path d="M1.32288 31.1791C1.32288 31.5635 1.43608 31.8173 1.49952 32.0639C1.91295 33.6679 2.80163 35.0444 3.856 36.3C5.35772 38.0894 7.19686 39.5298 9.08084 40.8845C10.7149 42.0591 12.3823 43.2076 14.023 44.3735C14.3046 44.5737 14.5709 44.8039 14.8766 45.0494C14.6136 45.1916 14.3948 45.3169 14.1673 45.4323C12.0023 46.5304 9.9192 47.7614 7.99913 49.2527C6.84194 50.1518 5.72303 51.1072 4.9328 52.3557C3.66131 54.3638 3.21124 56.5032 4.15897 58.7875C4.43569 59.4547 4.85788 60.0311 5.45342 60.4571C5.64647 60.5949 5.86303 60.7316 6.08889 60.7852C6.66749 60.9214 7.25702 61.0105 7.84272 61.1183L9.50139 61.1172C11.3356 60.9537 13.0052 60.3253 14.514 59.2841C16.8722 57.6566 18.4608 55.4745 19.1439 52.674C19.6405 50.6385 19.6607 48.6009 19.0755 46.5747C19.0214 46.3866 18.953 46.2023 18.8819 46.0202C18.8108 45.838 18.7272 45.6609 18.6287 45.4339L22.389 43.2716L22.4454 43.3197C22.377 43.5434 22.3043 43.7665 22.2425 43.9923C21.7957 45.6242 21.4987 47.2845 21.6054 48.9782C21.7191 50.7829 22.2228 52.4722 23.2794 53.9799C24.1336 55.1995 26.169 55.2448 27.0769 54.0209C27.399 53.5862 27.7112 53.1317 27.9458 52.6466C28.5589 51.3806 29.1265 50.0922 29.7122 48.8125L29.8145 48.5784C29.7724 49.1844 29.7232 49.7165 29.7008 50.2491C29.6658 51.0809 29.7144 51.9078 29.9988 52.6991C30.2422 53.3762 30.6562 53.882 31.4316 53.9712C31.9621 54.0319 32.3848 53.7891 32.7747 53.4812C33.384 53.0005 33.8789 52.4066 34.2464 51.7317C35.286 49.8226 36.3535 47.9249 37.2958 45.9677C38.3151 43.8507 39.2065 41.672 40.1532 39.5189L40.3096 39.1372C40.5333 40.016 40.6891 40.8768 40.9762 41.6916C41.3098 42.6372 41.7227 43.5603 42.1722 44.4577C42.385 44.8816 42.3604 45.1566 42.0656 45.5121C40.8319 46.9996 39.6194 48.5052 38.4059 50.0091C38.1374 50.341 37.87 50.679 37.6463 51.0416C37.5112 51.262 37.4215 51.5305 37.3838 51.7875C37.3111 52.2786 37.6146 52.7522 38.1401 52.8654C38.6203 52.9688 39.1316 53.007 39.6211 52.9709C41.3148 52.8462 42.8526 52.2518 44.2121 51.2445C45.9736 49.9396 46.539 48.159 46.1125 46.0486C45.9971 45.476 45.7931 44.9193 45.5946 44.3675C45.5055 44.1187 45.4994 43.9442 45.6619 43.7123C47.0701 41.7015 48.2732 39.5681 49.3921 37.3855C49.4364 37.2997 49.4818 37.2138 49.5594 37.122C49.922 39.0087 50.4678 40.827 51.4456 42.477C50.9469 42.9577 50.453 43.3935 50.0062 43.8737C49.0224 44.9313 48.1693 46.0798 47.7241 47.4803C47.5327 48.0841 47.3856 48.6977 47.4709 49.3424C47.6033 50.3438 48.4236 50.9945 49.4085 50.7665C51.5162 50.2787 53.3356 49.2855 54.6651 47.5262C55.5597 46.3417 55.6412 45.0205 55.2666 43.6363C55.1638 43.2601 55.0419 42.8898 54.9106 42.4584C55.4307 42.297 55.9376 42.1034 56.4621 41.9837C59.185 41.3624 61.8783 41.4707 64.5023 42.454C66.034 43.0282 67.2716 43.9891 68.0055 45.5006C68.9019 47.3485 68.4064 49.1018 66.6646 50.2699C66.5022 50.3787 66.3162 50.4646 66.1817 50.6008C66.0991 50.6845 66.0494 50.8518 66.0696 50.9672C66.0811 51.0345 66.2588 51.1187 66.3611 51.1176C66.9337 51.1132 67.398 50.813 67.8437 50.5045C68.9604 49.7318 69.7752 48.6922 69.9508 47.3234L69.9852 47.2205L69.9431 46.3291C69.9262 46.2777 69.9557 46.2269 69.9519 46.188C69.7145 44.1947 68.6497 42.6487 67.101 41.4368C65.3073 40.0341 63.1892 39.4566 60.9492 39.3652C59.1237 39.2909 57.3294 39.5621 55.609 40.1872C55.1184 40.3649 54.6322 40.5755 54.139 40.774C54.0728 40.6542 54.0017 40.5394 53.9432 40.4207C53.4368 39.3838 52.8232 38.3929 52.6876 37.204C52.5913 36.3596 52.4732 35.5163 52.6739 34.6813C52.8669 33.8779 53.1185 33.0882 53.3553 32.2958C53.4772 31.8878 53.3914 31.6592 53.002 31.4755C52.8664 31.4115 52.7187 31.3557 52.5722 31.3344C51.6151 31.1955 50.6712 31.2748 49.7443 31.5444C49.4162 31.6401 49.1777 31.8238 49.105 32.187C49.0634 32.3953 48.9787 32.5949 48.9196 32.8005C48.6773 33.6553 48.5056 34.5265 48.114 35.3408C47.133 37.3834 46.013 39.3488 44.8667 41.3001C44.7426 41.5106 44.6119 41.7173 44.4555 41.9727C44.053 41.1305 43.6237 40.3748 43.4935 39.4888C43.3464 38.487 43.2305 37.4867 43.4798 36.4925C43.6652 35.7509 43.9075 35.023 44.1306 34.2913C44.2362 33.9435 44.1875 33.7609 43.8725 33.5777C43.7133 33.4852 43.5334 33.4032 43.354 33.3764C42.3615 33.2293 41.3837 33.3064 40.4261 33.6159C40.1291 33.7122 39.9733 33.9041 39.8825 34.2104C39.6156 35.1138 39.3881 36.0391 39.0135 36.8983C37.4965 40.3764 35.9357 43.8365 34.3765 47.296C34.0512 48.0184 33.67 48.7157 33.303 49.419C33.2101 49.5973 33.0744 49.7542 32.9585 49.9216C32.8655 49.8116 32.8294 49.7362 32.83 49.6607C32.8327 49.2161 32.7797 48.7584 32.8644 48.3285C33.1209 47.028 33.4162 45.7347 33.7274 44.4463C33.9844 43.382 34.2836 42.3277 34.5685 41.2705C34.6642 40.9167 34.6658 40.5859 34.4115 40.2884C33.9844 39.7902 33.0919 39.6808 32.5626 40.0647L32.3285 40.197L32.3739 39.8197C32.4855 39.0109 32.5079 38.2048 32.2858 37.408C32.0091 36.4148 31.3004 35.8434 30.2701 35.8751C29.7899 35.8898 29.2857 35.9719 28.8411 36.1469C26.9713 36.8797 25.5336 38.1774 24.3097 39.7387C24.1987 39.8804 24.0521 40.0095 23.8957 40.0964C22.3136 40.9736 20.7265 41.8398 19.1401 42.7094L17.3742 43.6768C16.9006 43.2251 16.4702 42.7564 15.9819 42.3588C14.4905 41.1426 12.9751 39.9564 11.4734 38.7538C10.1423 37.688 8.8528 36.5778 7.86624 35.1663C7.13233 34.1163 6.65928 32.9673 6.61389 31.6691C6.55647 30.0148 7.02569 28.5032 7.86788 27.0961C8.94522 25.2958 10.4147 23.8509 12.0301 22.5423C13.7391 21.1587 15.5876 19.984 17.5033 18.9116C20.1835 17.4115 22.9403 16.0837 25.8962 15.207C28.9269 14.308 32.002 13.7934 35.1739 14.1521C36.4208 14.2932 37.6315 14.5787 38.7433 15.1884C39.5948 15.6549 40.2932 16.2658 40.618 17.2206C40.9385 18.1602 40.9287 19.1123 40.7066 20.0666C40.2555 21.9992 39.1973 23.5923 37.8656 25.0158C35.6814 27.3493 33.017 28.938 30.0174 29.9874C28.2865 30.5928 26.5059 30.9729 24.6772 31.1266C23.1847 31.2518 21.7235 31.1195 20.3104 30.6005C19.3747 30.2565 18.5598 29.7304 17.9047 28.967C17.7876 28.8302 17.6378 28.682 17.4196 28.81C17.2058 28.9358 17.168 29.1392 17.2397 29.3454C17.3594 29.6877 17.4699 30.0443 17.6564 30.3505C18.1251 31.1189 18.8087 31.6762 19.5612 32.1541C21.0065 33.0734 22.622 33.3824 24.2971 33.4541C26.839 33.564 29.319 33.1845 31.7641 32.5025C35.2548 31.5291 38.29 29.8097 40.7241 27.0972C42.7508 24.8386 44.1984 22.2896 44.5085 19.2118C44.66 17.7095 44.4987 16.2379 43.7954 14.8674C43.0325 13.3827 41.8195 12.2785 40.3692 11.5178C38.2572 10.4104 35.9778 9.76562 33.6251 9.76562H31.2681C28.4189 9.76562 25.6643 10.5821 22.9868 11.5561C20.9601 12.2938 18.9727 13.1645 17.0433 14.128C12.8417 16.2275 8.92881 18.759 5.71483 22.2398C4.11358 23.974 2.75788 25.8875 1.97803 28.1406C1.74999 28.8002 1.53342 29.5073 1.37045 30.1892M16.5949 49.8838C16.4128 52.3223 15.3076 54.2993 13.5012 55.9005C12.4851 56.8007 11.3198 57.4416 9.96241 57.667C9.47022 57.7484 8.96655 57.7681 8.48913 57.5641C7.80827 57.2732 7.65569 56.6689 7.64256 56.0252C7.62233 54.9993 7.98163 54.0718 8.47436 53.1891C9.11749 52.0385 10.0603 51.1613 11.0671 50.3421C12.653 49.0509 14.3735 47.9583 16.1355 46.9269L16.2684 46.8722C16.5408 47.8784 16.6704 48.8721 16.5949 49.8838ZM30.3532 39.2859C30.2247 40.0647 30.0639 40.844 29.8364 41.5987C29.05 44.2111 28.0399 46.7426 26.9478 49.2402C26.746 49.7023 26.4523 50.1239 26.1969 50.562C26.1576 50.6298 26.099 50.6883 26.0422 50.7446C25.7261 51.0569 25.4264 51.0405 25.2667 50.632C25.0808 50.1573 24.9665 49.6492 24.868 49.1466C24.8019 48.8092 24.8177 48.4548 24.7969 48.1092C24.8183 45.6516 25.568 43.4181 26.8401 41.3389C27.3645 40.4814 27.9355 39.6644 28.8077 39.1219C29.0757 38.9551 29.3765 38.8211 29.68 38.7358C30.1448 38.6051 30.4303 38.82 30.3532 39.2859ZM39.7397 51.245L43.1134 47.3059C43.254 48.7687 40.7673 51.6891 39.7397 51.245ZM50.5148 48.5943C50.2764 48.731 50.0166 48.8295 49.7722 48.9558C49.5485 49.0717 49.4747 48.9547 49.4681 48.7622C49.4637 48.6315 49.4829 48.4948 49.519 48.3679C49.9745 46.7612 50.8129 45.3896 52.0603 44.274L52.1478 44.2291C52.7412 45.8889 52.0554 47.7116 50.5148 48.5943Z" fill="#F0F8FF"/>
</g>
<defs>
<clipPath id="clip0_1_2166">
<rect width="70" height="70" fill="white" transform="translate(0.65625 0.46875)"/>
</clipPath>
</defs>
</svg>
