<svg width="71" height="71" viewBox="0 0 71 71" fill="none" xmlns="http://www.w3.org/2000/svg">
<g clip-path="url(#clip0_1_2134)">
<path d="M1.96875 1.01562V69.375H70.3281V1.01562H1.96875ZM38.1276 59.2649C37.1186 61.3152 35.1925 62.6621 32.9607 63.3123C29.5312 64.0998 26.2511 63.6509 23.8109 62.1863C22.178 61.1845 20.9027 59.6423 20.037 57.8655L25.2432 54.6772C25.2886 54.6963 25.4253 54.9435 25.608 55.2629C26.2719 56.3752 26.8445 57.1627 27.9699 57.7156C29.0757 58.093 31.5033 58.3341 32.4406 56.3884C33.0132 55.3985 32.8311 52.2168 32.8311 48.6966C32.8305 43.1649 32.8562 37.6562 32.8562 32.1875H39.2596C39.2596 38.2031 39.2924 43.9005 39.2596 49.7706C39.2733 53.3691 39.5855 56.577 38.1276 59.2649ZM64.6915 57.4559C62.4657 65.0695 50.056 65.3166 45.097 60.2865C44.0491 59.1025 43.3923 58.484 42.7673 57.1173C45.4027 55.6014 45.4027 55.6014 47.967 54.1177C49.3598 56.2587 50.6477 57.4362 52.9648 57.918C56.1083 58.3019 59.2709 57.2218 58.5616 53.8831C57.8326 51.1564 52.1248 50.493 48.2404 47.5771C44.2969 44.9286 43.3727 38.493 46.6134 34.8158C47.6935 33.4557 49.5354 32.4407 51.468 31.9529L53.4849 31.692C57.3573 31.6138 59.7778 32.6365 61.5546 34.6205C62.049 35.1215 62.4526 35.6618 63.2073 36.8327C61.1445 38.1473 61.151 38.1348 58.1963 40.0477C57.5652 38.6882 56.5179 37.8351 55.411 37.4643C53.6927 36.9437 51.526 37.5097 51.0765 39.3253C50.9206 39.8848 50.9529 40.4054 51.2006 41.3296C51.8968 42.9172 54.233 43.6073 56.3287 44.5704C62.3613 47.0171 64.3984 49.6405 64.8993 52.7631C65.3816 55.4516 64.7828 57.1955 64.6915 57.4559Z" fill="#F0F8FF"/>
</g>
<defs>
<clipPath id="clip0_1_2134">
<rect width="70" height="70" fill="white" transform="translate(0.875 0.46875)"/>
</clipPath>
</defs>
</svg>
