<svg width="30" height="32" viewBox="0 0 30 32" fill="none" xmlns="http://www.w3.org/2000/svg">
<path d="M11.6313 20.5438C11.6313 21.85 10.95 23.9875 9.3375 23.9875C7.725 23.9875 7.04375 21.85 7.04375 20.5438C7.04375 19.2375 7.725 17.1 9.3375 17.1C10.95 17.1 11.6313 19.2375 11.6313 20.5438ZM30 17.3875C30 19.3813 29.8 21.4938 28.9062 23.325C26.5375 28.1125 20.025 28 15.3625 28C10.625 28 3.725 28.1688 1.2625 23.325C0.35 21.5125 0 19.3813 0 17.3875C0 14.7688 0.86875 12.2938 2.59375 10.2875C2.26875 9.3 2.1125 8.2625 2.1125 7.2375C2.1125 5.89375 2.41875 5.21875 3.025 4C5.85625 4 7.66875 4.5625 9.825 6.25C11.6375 5.81875 13.5 5.625 15.3687 5.625C17.0562 5.625 18.7562 5.80625 20.3937 6.2C22.5187 4.53125 24.3313 4 27.1313 4C27.7437 5.21875 28.0438 5.89375 28.0438 7.2375C28.0438 8.2625 27.8813 9.28125 27.5625 10.25C29.2812 12.275 30 14.7688 30 17.3875ZM25.9813 20.5438C25.9813 17.8 24.3125 15.3813 21.3875 15.3813C20.2063 15.3813 19.075 15.5938 17.8875 15.7563C16.9563 15.9 16.025 15.9563 15.0688 15.9563C14.1188 15.9563 13.1875 15.9 12.25 15.7563C11.0813 15.5938 9.9375 15.3813 8.75 15.3813C5.825 15.3813 4.15625 17.8 4.15625 20.5438C4.15625 26.0312 9.18125 26.875 13.5562 26.875H16.5688C20.9625 26.875 25.9813 26.0375 25.9813 20.5438ZM20.8188 17.1C19.2063 17.1 18.525 19.2375 18.525 20.5438C18.525 21.85 19.2063 23.9875 20.8188 23.9875C22.4312 23.9875 23.1125 21.85 23.1125 20.5438C23.1125 19.2375 22.4312 17.1 20.8188 17.1Z" fill="#F0F8FF"/>
</svg>
