<svg id="erFQ7mREcUq1" xmlns="http://www.w3.org/2000/svg" xmlns:xlink="http://www.w3.org/1999/xlink" viewBox="0 0 40 24" shape-rendering="geometricPrecision" text-rendering="geometricPrecision">
<style><![CDATA[
#erFQ7mREcUq6 {animation: erFQ7mREcUq6_c_o 1900ms linear infinite normal forwards}@keyframes erFQ7mREcUq6_c_o { 0% {opacity: 1;animation-timing-function: step-end} 26.315789% {opacity: 0;animation-timing-function: step-end} 73.684211% {opacity: 0;animation-timing-function: step-end} 100% {opacity: 1}}
]]></style>
<g clip-path="url(#erFQ7mREcUq7)"><g><path d="M18.7042,3.73944h-11.33799v16.84506h11.33799v-16.84506Z"/><path d="M5.42255,0.5c-.1686,1.375-.012754,12.76775,0,22.7855h28.99975v-22.7855h-28.99975ZM11.6371,17.8248L9.56579,15.7529l2.07131-2.0713l2.0713-2.0713c0,0-1.2624-1.2624-2.0713-2.0713s-2.07131-2.0713-2.07131-2.0713L10.6014,6.43189l1.0357-1.03581l3.1071,3.10711l3.1071,3.10711-3.1071,3.1073-3.1071,3.1072Z" transform="translate(-.066429 0)" fill="#fff"/><path id="erFQ7mREcUq6" d="M29.3944,14.7535h-9.3944v2.5916h9.3944v-2.5916Z" transform="translate(0 0.066429)"/></g><clipPath id="erFQ7mREcUq7"><rect width="40" height="23" rx="0" ry="0" transform="translate(0 0.5)" fill="#fff"/></clipPath></g></svg>
