<svg width="903" height="887" viewBox="0 0 903 887" fill="none" xmlns="http://www.w3.org/2000/svg">
<g opacity="0.7" clip-path="url(#clip0_1_9)">
<path d="M855.774 566.567L788.681 566.208L784.024 551.108L850.909 550.762L855.774 566.567Z" fill="#F4A949"/>
<path d="M768.754 566.142L701.657 565.773L697.006 550.682L763.896 550.337L768.754 566.142Z" fill="#1C5F9A"/>
<path d="M805.643 533.101L738.563 532.739L733.912 517.635L800.791 517.298L805.643 533.101Z" fill="#1C5F9A"/>
<path d="M681.587 565.232L417.235 564.815L412.581 549.716L676.72 549.438L681.587 565.232Z" fill="#1C5F9A"/>
<path d="M700.098 532.985L264.206 529.799L259.552 514.709L695.225 517.18L700.098 532.985Z" fill="#9C27B0"/>
<path d="M424.733 365.618L8.25504 362.195L3.59903 347.1L419.876 349.824L424.733 365.618Z" fill="#1C5F9A"/>
<path d="M725.004 532.832L708.155 532.349L703.499 517.252L720.143 517.028L725.004 532.832Z" fill="#F4A949"/>
<path d="M544.11 497.7L478.966 496.499L474.32 481.4L539.243 481.908L544.11 497.7Z" fill="#F4A949"/>
<path d="M603.248 399.792L586.397 399.313L581.742 384.21L598.381 383.995L603.248 399.792Z" fill="#F4A949"/>
<path d="M576.845 400.077L559.999 399.596L555.351 384.503L571.974 384.27L576.845 400.077Z" fill="#F4A949"/>
<path d="M795.302 499.545L680.878 498.294L676.227 483.19L790.433 483.742L795.302 499.545Z" fill="#1C5F9A"/>
<path d="M567.585 465.736L453.143 464.478L448.492 449.381L562.712 449.929L567.585 465.736Z" fill="#1C5F9A"/>
<path d="M727.341 399.09L612.913 397.836L608.253 382.73L722.485 383.288L727.341 399.09Z" fill="#1C5F9A"/>
<path d="M560.674 366.25L446.223 365.011L441.575 349.92L555.8 350.46L560.674 366.25Z" fill="#1C5F9A"/>
<path d="M694.173 432.735L478.954 430.51L474.299 415.424L689.319 416.932L694.173 432.735Z" fill="#1C5F9A"/>
<path d="M666.113 498.025L551.683 496.773L547.033 481.677L661.253 482.227L666.113 498.025Z" fill="#1C5F9A"/>
<path d="M824.773 465.873L757.676 465.516L753.026 450.413L819.904 450.08L824.773 465.873Z" fill="#F4A949"/>
<path d="M746.488 466.123L585.469 465.637L580.819 450.537L741.636 450.312L746.488 466.123Z" fill="#9C27B0"/>
<path d="M469.318 430.887L157.161 431.317L152.514 416.207L464.444 415.082L469.318 430.887Z" fill="#9C27B0"/>
<path d="M771.062 432.281L703.959 431.929L699.304 416.823L766.185 416.477L771.062 432.281Z" fill="#F4A949"/>
<path d="M785.793 398.567L737.001 398.38L732.362 383.286L780.92 382.761L785.793 398.567Z" fill="#9C27B0"/>
<path d="M627.49 366.05L578.702 365.876L574.047 350.772L622.624 350.255L627.49 366.05Z" fill="#9C27B0"/>
<path d="M793.769 365.194L648.705 366.113L644.053 351.002L788.902 349.394L793.769 365.194Z" fill="#1C5F9A"/>
</g>
<defs>
<clipPath id="clip0_1_9">
<rect width="903" height="887" fill="white" transform="matrix(-1 0 0 -1 903 887)"/>
</clipPath>
</defs>
</svg>
