<svg width="71" height="71" viewBox="0 0 71 71" fill="none" xmlns="http://www.w3.org/2000/svg">
<g clip-path="url(#clip0_1_2139)">
<path d="M59.1016 25.1875C57.8984 24.75 56.6406 24.3125 55.3281 23.9297C55.6562 22.6172 55.9297 21.3047 56.1484 20.0469C57.2969 12.8281 56.0391 7.74219 52.5391 5.77344C51.5 5.17187 50.3516 4.89844 49.0391 4.89844C45.2109 4.89844 40.3438 7.74219 35.4219 12.5C30.5 7.74219 25.6328 4.89844 21.8047 4.89844C20.4922 4.89844 19.3438 5.17187 18.3047 5.77344C14.8047 7.79687 13.5469 12.8828 14.6953 20.0469C14.9141 21.3047 15.1875 22.6172 15.5156 23.9297C14.2031 24.3125 12.9453 24.6953 11.7422 25.1875C4.90625 27.8125 1.1875 31.4219 1.1875 35.4688C1.1875 39.5156 4.96094 43.125 11.7422 45.75C12.9453 46.1875 14.2031 46.625 15.5156 47.0078C15.1875 48.3203 14.9141 49.6328 14.6953 50.8906C13.5469 58.1094 14.8047 63.1953 18.3047 65.1641C19.3438 65.7656 20.4922 66.0391 21.8047 66.0391C25.6875 66.0391 30.5547 63.1953 35.4219 58.4375C40.3438 63.1953 45.2109 66.0391 49.0391 66.0391C50.3516 66.0391 51.5 65.7656 52.5391 65.1641C56.0391 63.1406 57.2969 58.0547 56.1484 50.8906C55.9297 49.6328 55.6562 48.3203 55.3281 47.0078C56.6406 46.625 57.8984 46.2422 59.1016 45.75C65.9375 43.125 69.6562 39.5156 69.6562 35.4688C69.6562 31.4219 65.9375 27.8125 59.1016 25.1875ZM51.0078 8.50781C53.25 9.82031 54.0156 13.8672 53.0859 19.6094C52.9219 20.7578 52.6484 21.9609 52.3203 23.2188C49.4766 22.5625 46.4688 22.125 43.2969 21.8516C41.4375 19.2266 39.5234 16.875 37.6094 14.7422C41.6562 10.75 45.7578 8.01562 49.0938 8.01562C49.8047 8.01562 50.4609 8.17969 51.0078 8.50781ZM44.8828 40.9375C43.8984 42.6875 42.75 44.4375 41.5469 46.1875C39.5234 46.3516 37.5 46.4062 35.4219 46.4062C33.2891 46.4062 31.2656 46.3516 29.2969 46.1875C28.0937 44.4375 27 42.6875 26.0156 40.9375C24.9766 39.1328 23.9922 37.2734 23.1172 35.4688C23.9922 33.6641 24.9766 31.8047 26.0156 30C27 28.25 28.1484 26.5 29.3516 24.75C31.375 24.5859 33.3984 24.5312 35.4766 24.5312C37.6094 24.5312 39.6328 24.5859 41.6016 24.75C42.8047 26.5 43.8984 28.25 44.8828 30C45.9219 31.8047 46.9062 33.6641 47.7812 35.4688C46.8516 37.2734 45.9219 39.0781 44.8828 40.9375ZM49.4219 39.1328C50.2422 41.0469 50.8984 42.9062 51.5 44.7656C49.6406 45.2031 47.6719 45.5312 45.5938 45.8047C46.25 44.7656 46.9609 43.6719 47.5625 42.5234C48.2187 41.375 48.8203 40.2266 49.4219 39.1328ZM35.4219 53.9531C34.1094 52.5313 32.8516 51 31.6484 49.4141C32.9062 49.4688 34.1641 49.5234 35.4219 49.5234C36.6797 49.5234 37.9375 49.4688 39.1953 49.4141C37.9922 51 36.7344 52.5313 35.4219 53.9531ZM25.25 45.75C23.1719 45.4766 21.2031 45.1484 19.3437 44.7109C19.9453 42.9062 20.6016 40.9922 21.4219 39.0781C22.0234 40.1719 22.625 41.3203 23.2812 42.4141C23.9375 43.6172 24.5938 44.6563 25.25 45.75ZM21.4219 31.8047C20.6016 29.8906 19.9453 28.0312 19.3437 26.1719C21.2031 25.7344 23.1719 25.4062 25.25 25.1328C24.5938 26.1719 23.8828 27.2656 23.2812 28.4141C22.625 29.5625 22.0234 30.7109 21.4219 31.8047ZM35.4219 16.9844C36.7344 18.4062 37.9922 19.9375 39.1953 21.5234C37.9375 21.4688 36.6797 21.4141 35.4219 21.4141C34.1641 21.4141 32.9062 21.4688 31.6484 21.5234C32.8516 19.9375 34.1094 18.4062 35.4219 16.9844ZM47.5625 28.4688L45.5938 25.1875C47.6719 25.4609 49.6406 25.7891 51.5 26.2266C50.8984 28.0312 50.2422 29.9453 49.4219 31.8594C48.8203 30.7109 48.2187 29.5625 47.5625 28.4688ZM17.7578 19.6094C16.8281 13.8672 17.5938 9.82031 19.8359 8.50781C20.3828 8.17969 21.0391 8.01562 21.75 8.01562C25.0312 8.01562 29.1328 10.6953 33.2344 14.7422C31.3203 16.8203 29.4062 19.2266 27.5469 21.8516C24.375 22.125 21.3672 22.6172 18.5234 23.2188C18.1953 21.9609 17.9766 20.7578 17.7578 19.6094ZM4.25 35.4688C4.25 32.8984 7.36719 30.1641 12.8359 28.1406C13.9297 27.7031 15.1328 27.3203 16.3359 26.9922C17.2109 29.7266 18.3047 32.625 19.6172 35.5234C18.3047 38.4219 17.1562 41.2656 16.3359 44C8.78906 41.8125 4.25 38.5312 4.25 35.4688ZM19.8359 62.4297C17.5938 61.1172 16.8281 57.0703 17.7578 51.3281C17.9219 50.1797 18.1953 48.9766 18.5234 47.7188C21.3672 48.375 24.375 48.8125 27.5469 49.0859C29.4062 51.7109 31.3203 54.0625 33.2344 56.1953C29.1875 60.1875 25.0859 62.9219 21.75 62.9219C21.0391 62.9219 20.3828 62.7578 19.8359 62.4297ZM53.0859 51.3281C54.0156 57.0703 53.25 61.1172 51.0078 62.4297C50.4609 62.7578 49.8047 62.9219 49.0938 62.9219C45.8125 62.9219 41.7109 60.2422 37.6094 56.1953C39.5234 54.1172 41.4375 51.7109 43.2969 49.0859C46.4688 48.8125 49.4766 48.3203 52.3203 47.7188C52.6484 48.9766 52.8672 50.1797 53.0859 51.3281ZM58.0078 42.7969C56.9141 43.2344 55.7109 43.6172 54.5078 43.9453C53.6328 41.2109 52.5391 38.3125 51.2266 35.4141C52.5391 32.5156 53.6875 29.6719 54.5078 26.9375C62.0547 29.125 66.5938 32.4062 66.5938 35.4688C66.5938 38.0391 63.4219 40.7734 58.0078 42.7969Z" fill="#F0F8FF"/>
</g>
<defs>
<clipPath id="clip0_1_2139">
<rect width="70" height="70" fill="white" transform="translate(0.421875 0.46875)"/>
</clipPath>
</defs>
</svg>
