<svg width="71" height="71" viewBox="0 0 71 71" fill="none" xmlns="http://www.w3.org/2000/svg">
<g clip-path="url(#clip0_1_2181)">
<path d="M5.64249 1.5625L11.114 62.8634L35.6665 69.6452L60.2868 62.871L65.7637 1.5625H5.64249ZM54.3833 16.076L54.0404 19.9982L53.8894 21.7969H25.0883L25.7757 29.4531H53.2048L53.021 31.3513L51.253 51.1039L51.1228 52.3453L35.7031 56.583V56.5841L35.6845 56.594L20.2752 52.5345L19.229 40.9375H26.7841L27.3195 46.9088L35.6796 49.1406H35.7031V48.842L44.1004 46.7229L44.9776 37.1094H18.8927L17.0426 16.2641L16.8627 14.1406H54.5637L54.3833 16.076Z" fill="#F0F8FF"/>
</g>
<defs>
<clipPath id="clip0_1_2181">
<rect width="70" height="70" fill="white" transform="translate(0.703125 0.46875)"/>
</clipPath>
</defs>
</svg>
