<svg width="71" height="71" viewBox="0 0 71 71" fill="none" xmlns="http://www.w3.org/2000/svg">
<g clip-path="url(#clip0_1_2201)">
<path d="M46.7617 23.8066C49.8565 23.8066 52.8246 22.5772 55.0129 20.3889C57.2013 18.2005 58.4307 15.2325 58.4307 12.1377C58.4307 9.0429 57.2013 6.07486 55.0129 3.8865C52.8246 1.69815 49.8565 0.46875 46.7617 0.46875L23.4238 0.46875C20.3308 0.46875 17.3645 1.69743 15.1775 3.8845C12.9904 6.07157 11.7617 9.03788 11.7617 12.1309C11.7617 15.2238 12.9904 18.1901 15.1775 20.3772C17.3645 22.5643 20.3308 23.793 23.4238 23.793C20.329 23.793 17.361 25.0224 15.1726 27.2107C12.9843 29.3991 11.7549 32.3671 11.7549 35.4619C11.7549 38.5567 12.9843 41.5248 15.1726 43.7131C17.361 45.9015 20.329 47.1309 23.4238 47.1309C21.1159 47.1295 18.8595 47.8126 16.9398 49.0936C15.0201 50.3747 13.5234 52.1963 12.6389 54.328C11.7545 56.4597 11.522 58.8058 11.9709 61.0696C12.4199 63.3334 13.53 65.4133 15.161 67.0462C16.7919 68.679 18.8705 69.7916 21.1338 70.2432C23.3971 70.6948 25.7435 70.4651 27.8762 69.5831C30.0089 68.7012 31.8322 67.2066 33.1156 65.2884C34.3989 63.3702 35.0846 61.1145 35.0859 58.8066V23.8066H46.7617ZM46.7617 23.8066C44.4552 23.8066 42.2004 24.4906 40.2826 25.7721C38.3648 27.0535 36.87 28.8749 35.9873 31.0059C35.1047 33.1368 34.8737 35.4817 35.3237 37.7439C35.7737 40.0061 36.8844 42.0841 38.5154 43.7151C40.1463 45.3461 42.2243 46.4568 44.4866 46.9068C46.7488 47.3568 49.0936 47.1258 51.2246 46.2431C53.3556 45.3605 55.177 43.8657 56.4584 41.9479C57.7399 40.03 58.4238 37.7753 58.4238 35.4688C58.4235 32.3759 57.1947 29.4098 55.0077 27.2228C52.8207 25.0358 49.8546 23.807 46.7617 23.8066Z" fill="#F0F8FF"/>
</g>
<defs>
<clipPath id="clip0_1_2201">
<rect width="70" height="70" fill="white" transform="translate(0.140625 0.46875)"/>
</clipPath>
</defs>
</svg>
